<?xml version="1.0" encoding="UTF-8"?>
<svg id="Layer_2" data-name="Layer 2" xmlns="http://www.w3.org/2000/svg" viewBox="0 0 1939.58 1656.3">
  <defs>
    <style>
      .cls-1 {
        fill: #0459a6;
      }

      .cls-2 {
        fill: #dc1a33;
      }

      .cls-3 {
        fill: #d60524;
      }

      .cls-3, .cls-4, .cls-5 {
        fill-rule: evenodd;
      }

      .cls-4 {
        fill: #004d9a;
      }

      .cls-5, .cls-6 {
        fill: #1a1a18;
      }

      .cls-7 {
        fill: #fefefe;
      }
    </style>
  </defs>
  <g id="Layer_1-2" data-name="Layer 1">
    <g>
      <g>
        <g>
          <path class="cls-2" d="M153.99,981.18l-153.99-.26,111.42-150.98L.2,679.21l154.03-.34.48-2.15c49.66-269.81,231.81-498.05,483-607.81,184.88-80.78,395.38-90.81,587.11-28.64,288.99,93.71,504.76,340.32,558.86,638.57,2.99.2,2.21.21,4.37.18l2.04-.02h147.93c1.16,0,1.86.33,1.23,1.41l-109.52,148.22c-1.21,1.64-.02,2.64.99,4.01l107.72,145.76c.59.79.85,1.05,1.08,1.67.21.56-.09,1.12-1.56,1.12l-155.06-.05c-30.17,162.98-109.62,312.54-225.62,429.77-153.69,155.33-362.66,243.74-581.41,245.37-162.22,1.21-321.37-44.62-457.62-133.39-188.88-123.05-320.6-317.37-362.66-538.96-.28-1.45-.07-2.72-1.59-2.73v-.02ZM984.63,283.98c237.78,6.2,443.26,168.08,508.15,395.01l250.1-.09c-13.87-73.15-38.08-142.89-71.61-208.76-77.86-152.21-203.06-275.37-356.69-350.48-217.17-106.3-474.71-106.18-691.77.29-158.02,77.4-285.86,205.71-362.94,363.88-29.97,61.9-51.89,127.02-64.77,195.09l250.11.07c68.26-238.23,289.75-402.65,539.41-395h.01ZM1484.56,679c-47.85-163.34-170.05-294.35-327.84-353.45-123.8-46.32-260.87-45.2-383.8,3.23-154.1,60.57-273,190.6-319.37,350.28l1031.01-.06ZM392.24,881.52c-6.57,7.26-17.62,7.43-25.99,7.87-17.06.91-30.68-8.32-36.51-24.11-4.27-11.55-4.73-23.67-4.7-36.24s.68-25.51,5.4-37.28c5.61-13.98,17.78-21.83,32.69-21.06,19.15.99,27.8,8.89,31.26,28.19h34.42c-2.08-25.47-15.92-46.33-40.94-53.45-14.21-4.04-28.93-4.64-43.45-1.98-22.2,4.06-39.12,18.64-47.8,39.18-6.43,15.21-7.67,30.85-7.68,47.4-.01,16.21,1.26,31.48,7.67,46.39,18.99,44.19,67.66,49.02,108.1,34.39,9.41-3.95,17.75-8.93,24.16-16.82l-.09-68.44-67.38.11.32,26.08,31.75.16c-1.33,9.71,1.8,20.77-1.24,29.59v.02ZM550.12,744.24l-.15,119.31c-1.34,15.95-12.34,25.86-27.92,25.9-9.43.02-18.91-1.53-25.33-9.12-4.63-5.47-6.71-12.73-6.73-20.37l-.23-115.81-35.5.1.43,118.56c.09,23.84,15.35,43.49,37.67,50.97,17.78,5.96,36.9,6.01,54.8.25,22.55-7.25,38.3-27.14,38.37-51.23l.37-118.68-35.76.11h-.02ZM702.98,880.42l11.98,35.3,37.69-.17-64.18-171.4-32.98.16-63.74,171.44,37.76-.06,11.94-35.3,61.53.03h0ZM901.7,915.27l-37.5-71.26c27.71-12.25,34.69-37.86,28.08-65.05-3.73-12.07-11.8-21.33-23.06-27-11.27-5.59-23.33-7.69-36.19-7.71l-65.71-.07.04,171.51,35.38.02.11-62.33,28.04-.11,32.21,62.6,38.59-.6h.01ZM1022.54,880.49l11.92,35.35,37.71-.29-64.1-171.37h-32.98l-63.75,171.52,37.61.14,11.94-35.41,61.65.06ZM1226.35,915.41l-.02-171.26-35.2-.05-.15,112.36-68.41-112.14-35.72-.18.04,171.69,35.6-.16.41-111.35,68.19,111.52,35.25-.43h.01ZM1330.53,915.78l.13-142.64,52.16-.07-.2-28.92-139.5-.03.03,28.99,51.7.13.06,142.59,35.62-.04h0ZM1502.75,841.79l-.09-28.15-67.56-.13v-40.38h79.09s.17-28.91.17-28.91l-114.78-.07.06,171.69h114.67l.29-28.6-79.48-.12-.02-45.24,67.66-.09h-.01ZM1639.32,841.64l-.2-28.05-67.4-.08v-40.38l79.1-.03-.2-28.95-114.54-.03.04,171.73h114.8l.18-28.69-79.5-.16.12-45.13,67.6-.22h0ZM1491.57,981.17c-33.44,113.67-102.88,212.57-197.21,283.22-91.4,68.36-202.01,106.43-316.16,108.04-6.64.44-11.61.49-18.05-.01-238.24-3.24-446.76-163.68-513.73-391.32l-247.09.04c-1.38,0-1.95-.22-2.71-.05-.63.14-.64.88-.4,2.12,27.49,137.51,91.47,265.07,185.03,369.69,91.9,102.75,208.71,179.98,339.71,223.37,159.31,52.77,332.12,53.24,491.72,1.43,135.98-44.14,256.83-124.72,350.73-232.32,90.32-103.8,152.19-229.04,178.72-364.22l-250.57.02h.01ZM1143.62,1335.32c163.11-56.39,290.22-189.09,339.61-354.26l-1028.42-.04c49.85,167.23,179.77,301.21,345.41,356.27,111.22,36.92,231.94,36.41,343.41-1.97h-.01Z"/>
          <polygon class="cls-7" points="1226.35 915.41 1191.11 915.84 1122.91 804.32 1122.5 915.67 1086.9 915.83 1086.86 744.13 1122.57 744.32 1190.98 856.46 1191.13 744.1 1226.33 744.15 1226.35 915.41"/>
          <path class="cls-7" d="M392.24,881.52c3.04-8.83-.1-19.88,1.24-29.59l-31.75-.16-.32-26.08,67.38-.11.09,68.44c-6.41,7.89-14.75,12.87-24.16,16.82-40.44,14.63-89.11,9.8-108.1-34.39-6.41-14.91-7.68-30.18-7.67-46.39.01-16.55,1.26-32.19,7.68-47.4,8.68-20.54,25.59-35.12,47.8-39.18,14.52-2.65,29.23-2.06,43.45,1.98,25.02,7.12,38.86,27.98,40.94,53.45h-34.42c-3.46-19.3-12.11-27.2-31.26-28.19-14.92-.77-27.09,7.08-32.69,21.06-4.72,11.77-5.37,24.35-5.4,37.28s.44,24.68,4.7,36.24c5.83,15.79,19.45,25.01,36.51,24.11,8.38-.45,19.42-.61,25.99-7.87v-.02Z"/>
          <path class="cls-7" d="M550.12,744.24l35.76-.11-.37,118.68c-.07,24.09-15.82,43.98-38.37,51.23-17.9,5.76-37.02,5.71-54.8-.25-22.32-7.48-37.58-27.13-37.67-50.97l-.43-118.56,35.5-.1.23,115.81c.02,7.64,2.09,14.9,6.73,20.37,6.42,7.59,15.9,9.14,25.33,9.12,15.58-.04,26.58-9.94,27.92-25.9l.15-119.31h.02Z"/>
          <polygon class="cls-7" points="1502.75 841.79 1435.09 841.87 1435.11 887.12 1514.6 887.23 1514.3 915.83 1399.64 915.83 1399.58 744.14 1514.36 744.21 1514.19 773.13 1435.09 773.12 1435.1 813.5 1502.67 813.63 1502.75 841.79"/>
          <polygon class="cls-7" points="1639.32 841.64 1571.72 841.85 1571.6 886.99 1651.1 887.15 1650.91 915.84 1536.12 915.84 1536.08 744.12 1650.62 744.15 1650.82 773.1 1571.72 773.12 1571.72 813.51 1639.12 813.59 1639.32 841.64"/>
          <polygon class="cls-7" points="1330.53 915.78 1294.91 915.82 1294.85 773.23 1243.15 773.1 1243.12 744.12 1382.62 744.15 1382.82 773.06 1330.66 773.14 1330.53 915.78"/>
          <g>
            <path class="cls-7" d="M901.7,915.27l-38.59.6-32.21-62.6-28.04.11-.11,62.33-35.38-.02-.04-171.51,65.71.07c12.86.01,24.92,2.11,36.19,7.71,11.25,5.67,19.33,14.93,23.06,27,6.61,27.19-.38,52.8-28.08,65.05l37.5,71.26h-.01ZM858.84,796.63c-.18-13.18-9.36-23.02-22.08-23.16l-33.87-.39.03,51.04,32.91-.22c14.56-.1,24.65-12.42,23.01-27.28h0Z"/>
            <path class="cls-2" d="M858.84,796.63c1.64,14.85-8.45,27.18-23.01,27.28l-32.91.22-.03-51.04,33.87.39c12.72.14,21.9,9.99,22.08,23.16h0Z"/>
          </g>
          <g>
            <path class="cls-7" d="M1022.54,880.49l-61.65-.06-11.94,35.41-37.61-.14,63.75-171.53h32.98l64.1,171.37-37.71.29-11.92-35.35h0ZM1012.87,851.33l-21.37-62.75-20.99,63.29,42.37-.54h-.01Z"/>
            <polygon class="cls-2" points="1012.87 851.33 970.5 851.86 991.5 788.58 1012.87 851.33"/>
          </g>
          <g>
            <path class="cls-7" d="M702.98,880.42l-61.53-.03-11.94,35.3-37.76.06,63.74-171.44,32.98-.16,64.18,171.4-37.69.17-11.98-35.3h0ZM693.26,851.48l-21.19-62.94-21.09,63.1,42.27-.15h.01Z"/>
            <polygon class="cls-2" points="693.26 851.48 650.99 851.63 672.07 788.54 693.26 851.48"/>
          </g>
        </g>
        <g>
          <path class="cls-7" d="M1491.57,981.17l250.57-.02c-26.53,135.18-88.41,260.42-178.72,364.22-93.9,107.59-214.75,188.18-350.73,232.32-159.61,51.81-332.41,51.34-491.72-1.43-130.99-43.39-247.81-120.62-339.71-223.37-93.56-104.61-157.54-232.18-185.03-369.69-.25-1.23-.23-1.98.4-2.12.76-.17,1.33.05,2.71.05l247.09-.04c66.97,227.64,275.48,388.08,513.73,391.32,6.44.5,11.41.45,18.05.01,114.15-1.61,224.76-39.68,316.16-108.04,94.33-70.65,163.76-169.55,197.21-283.22h-.01ZM1600.56,1176.34c3.82-7.07,7.42-13.11,10.03-19.98l-90.08-46.75,10.18-20.46c-5.35-2.66-9.82-5.72-15.37-7.49l-31.04,60.22,15.1,7.82,11.22-19.98,89.97,46.61h-.01ZM344.81,1137.08l60.14-30c5.58-2.79,10.6.1,13.29,4.91,3.15,5.65,2.57,11.87-3.38,15.02l-13.01,6.89,9.23,18.55c5.94-2.85,11.51-5.14,16.57-8.79,19.01-13.71,10.09-38.66-2.47-51.55-7.87-8.08-19.71-9.98-30.17-4.97-21.38,10.23-42.19,20.54-62.99,31.83-9.76,5.3-13.81,16.63-11.85,26.89,1.83,9.58,6.09,17.79,12.41,24.79,7.58,8.38,18.97,10.6,29.47,6.23,6.26-2.6,11.88-5.75,18.38-9.08l-9.44-18.61-16.46,8.11c-5.74,2.83-10.86.24-13.72-4.96-3.09-5.63-2.7-11.92,4-15.26h0ZM486.44,1193.39l-75.47,53.61c-2.88,2.05-5.64,2.84-9.1,1.95-2.05-.53-4.02-2.63-5.82-4.87-3.83-4.76-4-11.02,1.39-14.86l76.11-54.18-12.86-18.39-77.32,55.45c-9.53,6.83-12.19,18.89-8.43,29.26,3.36,9.28,8.9,17.09,16.75,23.04,8.67,6.57,20.48,7.44,29.83.83l77.36-54.7c-4.36-6.34-7.51-11.38-12.44-17.14h0ZM1526.05,1289.67l13.22-17.91-40.86-30.3,14.5-19.71,41.05,30.03,13.31-18.38-95.94-70.44-13.51,18.25,40.92,30.33-14.49,19.66-41.09-29.94-13.14,17.92,96.03,70.49h0ZM481.83,1349.26c17.44-5.58,26.8-21.71,25.38-39.21l-2.1-25.95c-.82-10.07,6.03-22.87,15.42-22.28,2.83.18,5.27,2,7.49,4.33,3.76,3.93,4.04,9,.41,13.24-1.59,1.86-3.73,3.16-5.05,5.67l13.98,14.73c11.72-8.55,17.35-22.7,10.04-36.09-6.99-12.79-22.91-26.73-38.42-21.62-16.07,5.29-26.13,20.26-24.88,37.02l2.17,28.94c.65,8.69-3.59,17.11-11.49,20.72-4.44,2.03-8.43-.95-11.36-3.95-4.09-4.19-4.71-9.72-.62-14.1,2.37-2.54,5.08-4.63,7.41-7.65l-14.27-14.72c-12.43,9.01-20.39,23.12-12.76,37.77,6.56,12.61,23.11,28.12,38.66,23.15h0ZM1446.8,1304.46l15.9,15.98c4.49,4.51,3.95,10.44-.6,14.77-2.26,2.15-4.82,4.07-7.56,4.22-3.28.18-5.78-1.27-8.21-3.73l-46.65-47.13c-4.59-4.63-3.81-10.33.27-14.64s10.11-5.89,14.96-1.63c3.76,3.31,6.7,7.33,11.02,10.42l14.6-14.66c-10.92-12.6-24.33-24.27-41.52-14.88-8.01,4.37-14.44,10.68-19.18,18.58-6.02,10.04-5.29,22.84,3.28,31.53l48.52,49.16c8.48,8.6,21.01,9.92,31.16,4.19,8.04-4.54,14.41-10.91,19.09-18.78,5.88-9.89,4.83-21.96-2.97-30.72-9.42-10.59-19.49-20-29.66-30.34l-21.96,21.92c4.56,4.53,7.93,8.59,12.41,12,2.84-2.1,3.68-4.49,7.11-6.28v.02ZM542.18,1414.58l61.51-80.54,18.34,13.6,10.36-13.71-54.18-41.26c-3.76,4.9-7.4,9.01-10.26,13.87l17.73,14.14-61.43,80.55c5.88,4.92,11.3,9.6,17.93,13.36h0ZM1343.03,1303.52l-17.72,13.73,73.16,94.38,17.72-13.73-73.16-94.38ZM1365.9,1435.47l-8.83-14.79-31.07,18.37-52.6-87.06-19.07,11.46,61.59,102.17,49.99-30.15h-.01ZM666.36,1460.65l32.45-59.62c5.82-10.69,3.08-23.23-5.38-31.25-7.19-6.82-15.71-11.46-25.54-13.28-10.99-2.03-22.18,2.56-27.72,12.73l-33,60.59c-5.6,10.29-2.82,22.37,4.98,30.26,7,7.08,15.44,11.68,25.18,13.84,11.46,2.55,23.08-2.34,29.03-13.26h0ZM1221.94,1453l27.48-11.71-6.54-15.69-27.96,11.28-12.61-29.96,34.64-14.86c-2.07-5.64-4.14-10.64-6.77-15.87l-55.32,23.51,46.59,109.8,55.36-23.69c-2.42-6.2-4.2-10.7-6.76-15.69l-34.88,14.51-13.22-31.63h-.01ZM765.03,1526.49l19.85,6.45,37.56-113.26-29.21-9.67-40.12,73.38,10.62-83.17-29.35-9.5-37.49,112.94,18.36,5.94,24.85-72.29-9.22,77.65c6.93,2.32,13.04,4.82,19.74,6.32l37.59-67.67-23.18,72.89h0ZM1159.91,1527.3c9.74-5.58,15.06-16.32,12.24-27.49l-16.62-65.99c-1.95-7.75-7.42-13.66-14.29-16.73-6.9-2.48-13.96-2.66-21.1-.84l-36.57,9.33,29.26,115.37,35.32-8.81c4.09-1.02,7.68-2.58,11.76-4.85h0ZM891.66,1498.99l2.4-16.9-29.63-4.55,4.74-32.41,37.58,5.37c.92-6.34,2.07-11.39,2.31-16.92l-59.4-8.71-17.61,117.9,59.32,8.82c1.38-5.83,2.11-11.27,2.62-17.06l-37.18-5.65,4.99-34.02,29.85,4.14h.01ZM983.6,1554.33c7.59,1.6,14.18-.57,21.63-.11-1.33-4.09-2.18-7.14-2.29-11.14l-.74-26.98c-.25-9.04-5.15-16.13-13.72-19.86,8.22-4.12,12.41-11.29,12.9-19.98.88-15.93,1.07-33.61-16.6-38.68-7.79-2.24-15.57-1.88-23.66-1.77l-26.2.36,1.96,118.97c7.98.4,15.08.16,22.3-.35l-.87-47.72c4.41-.38,8.43-.48,12.83.02,5.02.56,8.62,4.98,8.8,10.04l1,29.1c.07,2.1.33,7.6,2.68,8.1h-.02Z"/>
          <polygon class="cls-1" points="1526.05 1289.67 1430.01 1219.18 1443.16 1201.26 1484.24 1231.19 1498.73 1211.54 1457.82 1181.2 1471.32 1162.96 1567.26 1233.4 1553.95 1251.78 1512.9 1221.75 1498.4 1241.46 1539.27 1271.76 1526.05 1289.67"/>
          <path class="cls-1" d="M1446.8,1304.46c-3.43,1.78-4.27,4.18-7.11,6.28-4.49-3.41-7.85-7.47-12.41-12l21.96-21.92c10.17,10.34,20.24,19.75,29.66,30.34,7.8,8.76,8.85,20.83,2.97,30.72-4.68,7.87-11.05,14.24-19.09,18.78-10.15,5.73-22.67,4.4-31.16-4.19l-48.52-49.16c-8.57-8.68-9.3-21.49-3.28-31.53,4.74-7.9,11.16-14.2,19.18-18.58,17.2-9.39,30.6,2.28,41.52,14.88l-14.6,14.66c-4.33-3.09-7.26-7.11-11.02-10.42-4.85-4.27-10.81-2.73-14.96,1.63s-4.86,10-.27,14.64l46.65,47.13c2.43,2.46,4.93,3.91,8.21,3.73,2.74-.15,5.3-2.07,7.56-4.22,4.55-4.33,5.09-10.26.6-14.77l-15.9-15.98v-.02Z"/>
          <path class="cls-1" d="M486.44,1193.39c4.93,5.75,8.08,10.79,12.44,17.14l-77.36,54.7c-9.35,6.61-21.16,5.75-29.83-.83-7.85-5.95-13.39-13.76-16.75-23.04-3.76-10.37-1.1-22.43,8.43-29.26l77.32-55.45,12.86,18.39-76.11,54.18c-5.4,3.84-5.22,10.1-1.39,14.86,1.81,2.25,3.77,4.35,5.82,4.87,3.46.89,6.22.1,9.1-1.95l75.47-53.61h0Z"/>
          <path class="cls-1" d="M344.81,1137.08c-6.71,3.35-7.1,9.63-4,15.26,2.86,5.21,7.98,7.79,13.72,4.96l16.46-8.11,9.44,18.61c-6.51,3.33-12.13,6.47-18.38,9.08-10.5,4.37-21.89,2.15-29.47-6.23-6.32-7-10.58-15.21-12.41-24.79-1.95-10.25,2.1-21.59,11.85-26.89,20.8-11.29,41.61-21.6,62.99-31.83,10.46-5,22.29-3.11,30.17,4.97,12.56,12.89,21.49,37.84,2.47,51.55-5.07,3.65-10.63,5.94-16.57,8.79l-9.23-18.55,13.01-6.89c5.95-3.15,6.54-9.38,3.38-15.02-2.69-4.82-7.71-7.7-13.29-4.91l-60.14,30h0Z"/>
          <path class="cls-1" d="M481.83,1349.26c-15.55,4.97-32.1-10.54-38.66-23.15-7.63-14.65.33-28.77,12.76-37.77l14.27,14.72c-2.33,3.02-5.04,5.11-7.41,7.65-4.08,4.38-3.47,9.91.62,14.1,2.92,2.99,6.92,5.98,11.36,3.95,7.9-3.61,12.14-12.03,11.49-20.72l-2.17-28.94c-1.25-16.76,8.81-31.73,24.88-37.02,15.51-5.1,31.43,8.83,38.42,21.62,7.31,13.39,1.68,27.54-10.04,36.09l-13.98-14.73c1.32-2.51,3.46-3.81,5.05-5.67,3.63-4.24,3.35-9.31-.41-13.24-2.22-2.33-4.67-4.15-7.49-4.33-9.38-.59-16.23,12.21-15.42,22.28l2.1,25.95c1.42,17.5-7.93,33.64-25.38,39.21h0Z"/>
          <path class="cls-1" d="M891.66,1498.99l-29.85-4.14-4.99,34.02,37.18,5.65c-.51,5.79-1.24,11.23-2.62,17.06l-59.32-8.82,17.61-117.9,59.4,8.71c-.23,5.53-1.38,10.58-2.31,16.92l-37.58-5.37-4.74,32.41,29.63,4.55-2.4,16.9h-.01Z"/>
          <path class="cls-1" d="M1221.94,1453l13.22,31.63,34.88-14.51c2.56,4.99,4.34,9.5,6.76,15.69l-55.36,23.69-46.59-109.8,55.32-23.51c2.64,5.23,4.7,10.23,6.77,15.87l-34.64,14.86,12.61,29.96,27.96-11.28,6.54,15.69-27.48,11.71h.01Z"/>
          <path class="cls-1" d="M542.18,1414.58c-6.63-3.76-12.04-8.44-17.93-13.36l61.43-80.55-17.73-14.14c2.86-4.87,6.5-8.97,10.26-13.87l54.18,41.26-10.36,13.71-18.34-13.6-61.51,80.54h0Z"/>
          <path class="cls-1" d="M1600.56,1176.34l-89.97-46.61-11.22,19.98-15.1-7.82,31.04-60.22c5.56,1.77,10.03,4.82,15.37,7.49l-10.18,20.46,90.08,46.75c-2.62,6.86-6.21,12.91-10.03,19.98h.01Z"/>
          <polygon class="cls-1" points="1365.9 1435.47 1315.91 1465.62 1254.32 1363.45 1273.39 1351.99 1326 1439.04 1357.06 1420.68 1365.9 1435.47"/>
          <rect class="cls-1" x="1359.54" y="1297.9" width="22.42" height="119.42" transform="translate(-544.36 1124.36) rotate(-37.78)"/>
          <g>
            <path class="cls-7" d="M1143.62,1335.32c-111.47,38.38-232.19,38.89-343.41,1.97-165.64-55.05-295.56-189.04-345.41-356.27l1028.42.04c-49.39,165.17-176.5,297.88-339.61,354.26h.01ZM638.7,1068.4l34.49-.42-27.7-20.62,10.53-33.33-28.56,20.46-28.24-20.47,10.33,33.64-27.62,20.35,34.6.5,11.01,32.87,11.16-32.97h0ZM1323.73,1068.4l34.5-.4-27.73-20.66,10.52-33.3-28.51,20.43-28.29-20.47,10.34,33.66-27.6,20.32,34.59.49,11.09,32.88,11.08-32.96h.01ZM744.28,1206l33.89,24.34-12.46-40.03,33.51-24.64-41.83-.5-13.24-39.67-13.2,39.68-41.81.48,33.55,24.92-12.53,39.7,34.11-24.27h.01ZM1196.17,1206.02l33.59,24.1-12.11-39.85,33.45-24.6-41.84-.5-13.18-39.66-13.46,39.8-41.61.33,33.58,24.91-12.57,39.77,34.17-24.3h-.02ZM987.64,1270.03l55.85-.41-44.95-33.15,16.68-52.86-45.12,32.25-45.1-32.25,16.55,53.08-44.96,33.04,56.01.32,17.49,52.74,17.54-52.78v.02Z"/>
            <polygon class="cls-1" points="987.64 1270.03 970.1 1322.81 952.61 1270.07 896.59 1269.74 941.56 1236.7 925 1183.62 970.1 1215.87 1015.22 1183.62 998.54 1236.48 1043.48 1269.62 987.64 1270.03"/>
            <polygon class="cls-1" points="1196.17 1206.02 1162 1230.32 1174.57 1190.55 1141 1165.64 1182.61 1165.31 1196.07 1125.51 1209.25 1165.17 1251.09 1165.67 1217.64 1190.27 1229.76 1230.11 1196.17 1206.02"/>
            <polygon class="cls-1" points="744.28 1206 710.16 1230.27 722.69 1190.57 689.14 1165.65 730.95 1165.17 744.15 1125.49 757.39 1165.17 799.22 1165.66 765.71 1190.3 778.17 1230.34 744.28 1206"/>
            <polygon class="cls-1" points="1323.73 1068.4 1312.65 1101.36 1301.55 1068.48 1266.96 1067.99 1294.56 1047.67 1284.22 1014 1312.51 1034.47 1341.02 1014.04 1330.5 1047.34 1358.23 1068 1323.73 1068.4"/>
            <polygon class="cls-1" points="638.7 1068.4 627.54 1101.37 616.53 1068.5 581.93 1068 609.55 1047.65 599.22 1014.01 627.45 1034.48 656.01 1014.03 645.49 1047.36 673.19 1067.98 638.7 1068.4"/>
          </g>
          <g>
            <path class="cls-1" d="M765.03,1526.49l23.18-72.89-37.59,67.67c-6.7-1.5-12.82-4-19.74-6.32l9.22-77.65-24.85,72.29-18.36-5.94,37.49-112.94,29.35,9.5-10.62,83.17,40.12-73.38,29.21,9.67-37.56,113.26-19.85-6.45h0ZM741.27,1435.13c-.23-1.25-1.1-1.25-1.33,0,.14,2.31,1.19,2.31,1.33,0Z"/>
            <path class="cls-7" d="M741.27,1435.13c-.14,2.31-1.19,2.31-1.33,0,.23-1.25,1.1-1.25,1.33,0Z"/>
          </g>
          <g>
            <path class="cls-1" d="M983.6,1554.33c-2.35-.5-2.61-6-2.68-8.1l-1-29.1c-.17-5.05-3.78-9.48-8.8-10.04-4.41-.49-8.43-.4-12.83-.02l.87,47.72c-7.22.52-14.32.75-22.3.35l-1.96-118.97,26.2-.36c8.09-.11,15.87-.47,23.66,1.77,17.68,5.07,17.49,22.75,16.6,38.68-.48,8.69-4.67,15.86-12.9,19.98,8.58,3.73,13.48,10.82,13.72,19.86l.74,26.98c.11,4.01.96,7.05,2.29,11.14-7.45-.46-14.03,1.71-21.63.11h.02ZM978.82,1461.27c-1.06-10.85-13.74-8.18-21.37-7.88l.6,35.72c4.84.43,9.23.5,13.67-.53,9.98-2.31,8.06-17.39,7.1-27.31h0Z"/>
            <path class="cls-7" d="M978.82,1461.27c.97,9.92,2.88,24.99-7.1,27.31-4.44,1.03-8.82.96-13.67.53l-.6-35.72c7.63-.29,20.31-2.97,21.37,7.88h0Z"/>
          </g>
          <g>
            <path class="cls-1" d="M1159.91,1527.3c-4.08,2.27-7.67,3.83-11.76,4.85l-35.32,8.81-29.26-115.37,36.57-9.33c7.14-1.82,14.2-1.64,21.1.84,6.87,3.07,12.34,8.98,14.29,16.73l16.62,65.99c2.81,11.17-2.51,21.91-12.24,27.49h0ZM1150.39,1503.76l-16.23-63.8c-2.9-11.4-17.03-5.2-24.66-2.97l20.78,81.67c8.98-2.06,23.02-3.45,20.11-14.9Z"/>
            <path class="cls-7" d="M1150.39,1503.76c2.91,11.46-11.13,12.84-20.11,14.9l-20.78-81.67c7.62-2.23,21.76-8.43,24.66,2.97l16.23,63.8Z"/>
          </g>
          <g>
            <path class="cls-1" d="M666.36,1460.65c-5.95,10.93-17.56,15.81-29.03,13.26-9.74-2.16-18.17-6.76-25.18-13.84-7.81-7.89-10.58-19.97-4.98-30.26l33-60.59c5.54-10.17,16.73-14.76,27.72-12.73,9.82,1.82,18.34,6.46,25.54,13.28,8.47,8.02,11.21,20.56,5.38,31.25l-32.45,59.62h0ZM647.16,1449.47l32.06-58.91c3.08-5.66-.06-10.94-5.01-13.63-5.53-3.01-11.6-2.49-14.86,3.49l-32.29,59.15c-3.02,5.54-.39,11,4.69,13.86,2.75,1.54,6.39,2.58,9.3,1.63,2.04-.66,4.39-2.44,6.1-5.59h.01Z"/>
            <path class="cls-7" d="M647.16,1449.47c-1.71,3.15-4.06,4.93-6.1,5.59-2.92.95-6.55-.08-9.3-1.63-5.08-2.85-7.72-8.31-4.69-13.86l32.29-59.15c3.26-5.98,9.34-6.49,14.86-3.49,4.95,2.69,8.09,7.97,5.01,13.63l-32.06,58.91h-.01Z"/>
          </g>
        </g>
      </g>
      <g>
        <path class="cls-7" d="M984.63,283.98c-249.67-7.65-471.15,156.77-539.41,395l-250.11-.07c12.88-68.07,34.8-133.18,64.77-195.09,77.08-158.17,204.92-286.48,362.94-363.88,217.05-106.46,474.59-106.59,691.77-.29,153.63,75.11,278.83,198.27,356.69,350.48,33.52,65.87,57.74,135.61,71.61,208.76l-250.1.09c-64.89-226.92-270.37-388.81-508.15-395.01h-.01ZM930.35,190.21l1.58,61.78,43.09-1.07-1.44-62.29,48.98-111.52-46.36,1.21-25.45,68.87-28.65-67.26-46.09,1.34,54.34,108.95h0ZM850.39,188.85l-9.05-33.44-57.19,15.05-7.75-29,67.71-18.29-9.37-34.92-109.1,29.26,44.55,166.5,108.85-29.09-9.21-34.86-67.6,18.02-9.03-33.56,57.2-15.68h-.01ZM1221.75,212.06c18.85-4.94,27.71-21.26,30.37-38,2.17-13.63-2.34-26.4-11.91-36.25-8.46-8.19-18.32-14.22-29.74-18.13l-61.58-21.09-55.4,163.24,65.59,22.23c11.12,3.77,22.14,4.91,33.63,3.67,11.02-1.71,20.52-7.06,27.28-15.91,12.88-16.87,18.94-42.33,1.77-59.75h-.01ZM670.11,333.94l-45.3-83.59,90.57,58.96,36.34-20.05-82.66-150.96-37.43,20.19,45.55,84.03-90.82-59.2-36.38,20.13,82.76,151.11,37.37-20.62h0ZM1314.61,329.09l-9.07,31.19,38.6,24.49,43.02-177.16-32.91-21-142.75,113.05,38.34,24.75,24.53-21.23,40.24,25.91h0ZM571.35,413.95c20.34-18.59,27.3-45.14,18.91-71.13-5.42-16.78-15.47-30.5-27.68-43.22s-25.3-23.06-41.72-29.1c-25.94-9.55-53.23-3.68-72.47,15.85s-24.22,44.41-15.82,69.43c5.45,16.22,15.19,29.44,26.95,41.81s24.39,22.61,40.09,29.01c25.03,10.19,51.56,5.8,71.74-12.64h0ZM1431.46,352.62c13.85-13.09,38.37-35.71,55.08-14.87,4.05,5.06,8.17,10.94,7.11,17.9-1.14,7.47-6.23,13.05-11.82,18.54l29.29,31.23c20.85-21.14,28.19-50.73,13.51-77.04-5.41-9.69-12.23-17.94-20.95-24.76-28.23-22.09-63.86-14.02-90.12,7.04-10.17,8.16-19.35,16.9-27.83,26.78-24.09,28.06-30.52,64.54-4.41,93.43,26.67,29.52,63.79,35.74,94.73,7.04l-29.39-30.73c-5.89,5.42-11.46,9.41-18.57,9.95-7.64.18-13.4-4.56-18.37-9.61-18.41-18.72,7.18-41.15,21.74-54.91h0ZM359.12,536.13l102.18,20.44,13.86-24.98-69.3-74.78,49.27,29.36,34.81,19.4,20.74-37.43-150.39-84.07-26.37,47.05,79.1,82.11-111.38-24.28-26.25,47.04,150.48,84.07,20.81-37.24-34.05-19.18-53.51-27.51h0ZM1562.08,517.11l93.43,10.31-25.53-45.98-79.14-4.89,57.98-32.69-20.72-37.41-150.59,84.16,21.07,37.23,39.58-22.04,18.74,3.76-36.69,57.46,24.62,43.79,57.24-93.69h.01Z"/>
        <polygon class="cls-1" points="670.11 333.94 632.74 354.56 549.98 203.45 586.36 183.32 677.18 242.51 631.63 158.49 669.06 138.3 751.72 289.25 715.38 309.3 624.81 250.35 670.11 333.94"/>
        <path class="cls-1" d="M571.35,413.95c-20.18,18.44-46.71,22.83-71.74,12.64-15.7-6.39-28.38-16.69-40.09-29.01s-21.5-25.59-26.95-41.81c-8.4-25.01-2.49-50.84,15.82-69.43,19.24-19.54,46.53-25.41,72.47-15.85,16.42,6.05,29.59,16.46,41.72,29.1s22.26,26.44,27.68,43.22c8.39,25.99,1.43,52.53-18.91,71.13h0ZM529.32,327.84c-13.36-13.68-36.96-33.9-54.73-15.77-17.43,17.78,3.1,41.45,16.25,55.25,13.09,13.73,37.06,36.45,55.77,19.65,20.28-18.21-3.46-44.95-17.3-59.12h0Z"/>
        <polygon class="cls-1" points="850.39 188.85 793.19 204.53 802.23 238.08 869.82 220.07 879.03 254.92 770.18 284.01 725.63 117.51 834.73 88.25 844.1 123.17 776.39 141.46 784.14 170.46 841.34 155.41 850.39 188.85"/>
        <polygon class="cls-1" points="930.35 190.21 876.01 81.26 922.1 79.92 950.75 147.18 976.2 78.32 1022.55 77.1 973.58 188.62 975.02 250.92 931.93 251.99 930.35 190.21"/>
        <g>
          <path class="cls-1" d="M359.12,536.13l53.51,27.51,34.05,19.18-20.81,37.24-150.48-84.07,26.25-47.04,111.38,24.28-79.1-82.11,26.37-47.05,150.39,84.07-20.74,37.43-34.81-19.4-49.27-29.36,69.3,74.78-13.86,24.98-102.18-20.44h0ZM406.1,456.56c0-.28-.22-.5-.5-.5s-.5.22-.5.5.22.5.5.5.5-.22.5-.5Z"/>
          <circle class="cls-7" cx="405.6" cy="456.56" r=".5"/>
        </g>
        <path class="cls-7" d="M529.32,327.84c13.84,14.17,37.58,40.92,17.3,59.12-18.71,16.8-42.68-5.92-55.77-19.65-13.16-13.79-33.68-37.47-16.25-55.25,17.77-18.13,41.37,2.09,54.73,15.77h0Z"/>
        <path class="cls-7" d="M1484.56,679l-1031.01.06c46.37-159.69,165.26-289.71,319.37-350.28,122.93-48.43,260-49.55,383.8-3.23,157.79,59.1,279.99,190.1,327.84,353.45h0ZM609.13,557.91l21.9-52.04,24.56-.23c2.57-5.99,5.37-11.44,7.17-17.52l-75.34.05-7.09,17.55,23.97.23-21.69,52.03,26.52-.07h0ZM677.36,529.75c3.78-17.78,19.98-28.7,33.95-22.8,4.09,1.73,3.28,6.97,2.62,10.91h29.87c2.61-6.19,3.67-13.06.04-18.83-8.99-14.31-41.84-11.58-56.58-7.62-20.92,5.61-36.29,22.35-39.82,43.67-1.54,9.31,3.86,17.2,12.98,19.94,25.07,7.54,63.74,1.95,78.26-24.87l-30.51-.18c-5.29,8.08-13.65,11.77-23.12,10.41-5.14-.74-8.95-4.65-7.68-10.63h0ZM762.14,557.9l29.57-69.71-26.55-.04-29.61,69.8,26.58-.05h0ZM856.92,530.89l6.58-17.28-36.5-.44c.33-3.15,1.68-5.56,3.28-8.26l38.19-.23,6.94-16.58-59.11.09-30.55,69.9,59.71-.03,7.11-18.29-37.27-.45c.71-3.06,1.84-5.34,3.24-8.01l38.39-.42h-.01ZM934.6,557.7l-13.61-32.59,41.66-36.8-31.3-.1-18.99,16-7.32-16.02-22.1-.05,12.78,30.7-45.73,39.13,32.98-.03,21.62-18.29,8.26,18.54,21.75-.48h0ZM942.33,557.33l7.54-16.82,42.23-.35c9.59-.08,19.62-1.71,26.94-8.25,10.43-9.32,22.19-34.66,8.16-40.64-5.74-2.44-11.84-3-18.09-3.02l-36.91-.13-21.07,18.66,50.74.41c1.63.01,3.17,1.12,3.65,1.98.55.98.41,3-.19,4.39-2.01,4.64-7.02,6.89-12.24,6.91l-55.11.2-5.56,11.55,9.92,25.11h-.01ZM1102.28,557.95c-.08-4.41.19-7.1,1.27-10.25l4.67-13.61c1.24-3.61.21-6.97-3.08-9.54,9.76-4.29,17.32-12.21,19.44-22.79,1.17-5.83-1.91-11.07-7.79-12.09-4.82-1.09-9.65-1.53-14.73-1.52l-53.8.04-30.54,69.66,27.48-.12,8.85-20.8c5.19.32,21.22-1.56,22.68,2.04,1.78,4.39-4.78,12.54-4.34,18.92l29.89.05h0ZM1177.76,530.91l6.63-17.31-36.45-.46c.26-2.55,1.49-6.26,3.36-7.99l38.09-.38,6.91-16.66-59.11.02-30.48,69.82,59.6-.08,7.03-17.85-37.42-.25c.99-3.62,2.13-5.7,3.53-8.48l38.31-.37h0ZM1241.85,553.93c17.77-5.25,28.93-23.16,23.18-32.19-1.55-2.43-4.56-4.78-8.12-5.38l-32.37-5.49c-1.47-.25-3.05-1.13-3.16-2.39-.55-5.96,15.61-6.82,19.9-3.56,1.26.88.81,3.11,2,4.41l28.67-.26c2.54-2.65,2.4-8.29.49-11.72-1.37-2.45-4.6-5.28-8.54-6.29-16.6-4.27-34.47-4.05-51.09.59-11.29,3.15-19.9,11.95-21.83,23.34-1.16,6.87,4.27,11.86,10.57,12.85l28.34,4.45c1.67.26,2.93,1.23,3.23,2.44.34,1.36-.44,2.69-1.61,3.73-3.56,3.19-18.48,5.35-20.68-2.78-9.46.09-20.56-.81-29.84.34-3.6,3.76-2.39,12.12,1.68,15.34,12.94,10.26,44.55,6.9,59.21,2.56h-.03ZM1331.27,552.98c10.91-3.61,18.43-11.89,21.54-21.96,2.23-7.21-1.93-13.46-9.17-14.68l-32.35-5.46c-1.54-.26-2.96-1.19-3.06-2.38-.53-5.96,15.64-6.83,19.74-3.64,1.26,1.09,1.25,3.2,2.35,4.47l28.86-.04c1.7-3.81,2.19-8.02.13-11.84-1.44-2.66-5.02-5.62-9.16-6.59-22.41-5.26-69.23-5.97-72.44,25.28-1.87,18.21,40.89,11.6,42.25,18.55.32,1.66-.64,3.14-2.2,4.17-4.25,2.83-18.52,4.55-19.69-3.1l-30.39-.2c-2.28,4.01-2.56,9.5-.28,13.13,8.91,14.13,48.02,9.52,63.88,4.27v.02ZM1148.62,635.92c3.13,2.08,7.19,1.33,9.52-1.11,1.9-1.98,2.72-5.61,1.98-9.04-1.57-7.3-12.14-10.38-7.72-16.8.99-1.44,3.42-.99,5.82-.51.93-.19.79-2.48.34-3.51-.72-1.6-8.41-3.05-10.88,2.51-5.56,12.53,13.41,16.29,6.86,24.09-1.46,1.74-4.4.38-6.38.14-.35.95-.9,3.31.46,4.21v.02ZM1187.31,628.35c.24-9.69-13.08-12.59-7.92-19.39.94-1.24,3.35-1.17,5.78-.47.39-.67,1.02-2.94,0-3.75-2.67-2.14-7.73-1.54-9.78,1.43-8.46,12.23,12.51,17.31,6.12,25.34-1.44,1.82-4.44.54-6.44,0-.58.85-.99,2.94-.06,3.97,1.96,2.18,5.85,1.97,8.6.63,2.1-1.02,3.61-4.35,3.7-7.76h0ZM763.61,632.76c-1.74.08-4.83.39-5.31-.72l-.24-27.81c-1.54-.28-3.29-.49-4.64.38v31.94c3.71.37,6.93.54,10.77.06,1.49-.19,1.55-3.94-.58-3.85h0ZM789.47,621.36c.15-1.34.44-2.67-.46-2.98-2.03-.69-3.72-.07-5.88-.39l.08-9.88c2.37-.6,4.55.02,6.71-.73.65-.23.77-2.75.04-2.91-3.88-.87-7.56-.52-11.37-.07l.07,32.08c3.66.44,7.62.79,11.21-.12.9-.23.78-3.35-.12-3.49-2.38-.37-4.42.49-6.61-.73l.07-10.02,6.26-.76h0ZM820.2,636.41l-6.76-31.73c-.2-.95-3.57-1.01-3.78-.03l-6.81,31.35c-.18.85,2.08.84,2.76.84.75,0,1.79-.67,1.84-2.05.11-3.02,1.28-4.88,4.17-4.57,6.91.74.06,8.62,8.58,6.2h0ZM845.37,605.82c-3.09-2.69-7.96-1.86-11.76-1.37l.07,32.03c4.12.4,9.3.81,12.45-2.41,4.52-4.61,4.89-23.32-.76-28.24h0ZM874.91,621.25c.75-.4.69-2.44.07-2.74-1.98-.93-3.69-.18-5.86-.53.12-3.36-.48-6.52.29-9.74,1.05-.76,3.33-.4,4.69-.43,1.97-.04,2.42-.92,2.34-2.25-.17-2.7-8.72-1.31-12.06-1.21l.06,32.23c3.94.25,7.67.74,11.38-.2.91-.23.87-3.4-.06-3.51-2.44-.3-4.41.49-6.62-.72-.08-3.56-.2-6.59.08-9.98,2.02-.73,3.84.08,5.7-.91h-.01ZM901.38,636.24c.53,1.18,3.86.79,4.12-.22l-4.88-14.8c4.75-4.03,5.56-12.35.68-16.05-2.87-2.17-7.44-1.08-10.46-.63l.14,31.54c.69,1.1,4.17,1.08,4.42-.03.89-4.05-.66-7.61.88-11.25l5.11,11.45h0ZM944.38,604.06h-4.8v32.76h4.8v-32.76ZM975.31,635.68l-.03-31.39c-1.63-.43-2.74-.26-4.42-.1-.87,6.02.08,11.61-.03,18.11l-6.76-18.02c-.76-.45-3.03-.44-4.14.17l.1,31.9c1.46.8,3.3.62,4.33-.02l.05-18.4,6.89,18.59c.32.85,4.03.57,4.03-.82l-.02-.02ZM1021.58,621.26c.35-.8.44-1.85.09-2.53-.75-1.5-5.83.63-6.22-2.07-.19-1.29-.4-7.01.41-8.12,1.53-2.11,7.18,1.17,6.82-2.99-.24-2.67-9.13-1.36-12.08-1.14l.06,32.08c4.09.36,8.19.97,11.8-.31,1.46-6.48-4.57-1.15-6.64-4.55-.76-1.25-.72-7.87.03-9.08.84-1.35,5.32-.31,5.74-1.28h-.01ZM1045.94,620.03c-.03-5.14,4.17-9.84,4.71-15.18.12-1.22-3.75-1.22-4.36.18-1.25,2.84-1.3,5.58-2.98,8.23-1.88-2.67-2.12-5.38-3.4-8.2-.63-1.39-4.36-1.47-4.26-.18.41,5.47,5.93,10.36,4.47,15.2l-4.83,15.98c-.33,1.1,3.88,1.15,4.43-.1,1.27-2.87,1.33-5.62,3.09-8.06,2.56,1.78,2.31,8.79,4.94,8.86,7.79.22-1.75-8-1.8-16.72h0ZM1069.14,622.31c6,.16,9.09-3.02,8.99-8.26-.06-3.16.09-7.1-2.98-8.84s-7.07-1.3-10.79-.81l.17,31.65c0,1.16,4.05,1.13,4.09.02l.51-13.77h.01ZM1102.59,636.15c.52,1.24,4.03.93,4.16-.07l-4.83-14.76c4.58-4,5.58-11.91,1.04-15.93-2.77-2.45-7.3-1.02-10.87-1.21l.23,31.93c0,1.17,4.1,1.07,4.32-.03.81-4.2-.55-7.91.81-12.22l5.14,12.3h0ZM1130.71,621.79c1.83-.16,1.64-1.62,1.63-2.24-.05-3.26-5.19-.07-6.25-2.17-.38-.76-.48-7.66.05-8.68.89-1.7,5.73-.26,6.64-1.36,4.21-5.13-8.66-2.82-11.72-3.25l.16,32.55c3.98.23,7.91.47,11.32-.14.7-.12.95-2.92.24-3.24-2.18-.99-4.22-.07-6.68-.72-.14-3.32-.98-6.93.3-10.12.39-.97,2.73-.51,4.3-.64h0ZM579.57,618.55v3.51h166.06v-3.51h-166.06ZM1194.57,618.55v3.51h166.06v-3.51h-166.06Z"/>
        <g>
          <polygon class="cls-5" points="754.07 603.89 758.44 603.89 758.44 632.64 765.59 632.64 765.59 636.34 754.07 636.34 754.07 603.89"/>
          <polygon class="cls-5" points="779.18 603.89 790.8 603.89 790.8 607.58 783.55 607.58 783.55 617.87 789.98 617.87 789.98 621.57 783.55 621.57 783.55 632.64 790.8 632.64 790.8 636.34 779.18 636.34 779.18 603.89"/>
          <path class="cls-5" d="M810.29,603.89h3.4l6.96,32.46h-4.33l-1.22-6.33h-6.43l-1.25,6.33h-4.2l7.07-32.46h0ZM814.48,626.63h0l-.97-5.17c-.64-3.52-1.17-7.27-1.58-11.27-.2,1.95-.45,3.92-.76,5.93-.3,1.99-.67,4.1-1.09,6.35l-.8,4.16h5.2Z"/>
          <path class="cls-5" d="M834.07,603.89h5.38c1.64,0,3.02.18,4.14.55,1.04.35,1.96.97,2.78,1.87,1.22,1.35,2.08,3.1,2.6,5.26.52,2.08.78,5.08.78,8.97,0,3.57-.29,6.49-.86,8.74-.56,2.16-1.48,3.8-2.78,4.94-1.58,1.41-4.42,2.13-8.51,2.13h-3.53v-32.46h0ZM838.45,632.51h0c2.66,0,4.44-.8,5.34-2.42.92-1.61,1.39-4.74,1.39-9.39,0-5-.44-8.44-1.33-10.32-.88-1.88-2.5-2.82-4.85-2.82h-.55v24.94h0Z"/>
          <polygon class="cls-5" points="864.95 603.89 876.58 603.89 876.58 607.58 869.33 607.58 869.33 617.87 875.76 617.87 875.76 621.57 869.33 621.57 869.33 632.64 876.58 632.64 876.58 636.34 864.95 636.34 864.95 603.89"/>
          <path class="cls-5" d="M891.45,603.89h5.76c2.38,0,4.16.57,5.32,1.71,1.48,1.47,2.21,3.72,2.21,6.74,0,2.33-.39,4.2-1.18,5.62-.77,1.4-1.87,2.27-3.32,2.6l5.97,15.79h-4.44l-5.95-15.89v15.89h-4.37v-32.46h0ZM895.82,618.26h0c1.7,0,2.9-.39,3.6-1.18.7-.78,1.05-2.1,1.05-3.97,0-1.02-.08-1.87-.23-2.58-.14-.72-.37-1.3-.7-1.75-.31-.45-.72-.78-1.22-.99-.49-.22-1.08-.32-1.77-.32h-.74v10.78h.01Z"/>
          <rect class="cls-6" x="940.2" y="603.89" width="4.37" height="32.46"/>
          <path class="cls-5" d="M960.43,603.89h4.08l4.34,12.95c1.27,3.66,2.38,7.56,3.34,11.71-.35-2.51-.61-4.78-.77-6.81-.17-2.03-.26-3.95-.26-5.74v-12.11h4.4v32.46h-4.1l-4.9-14.61c-.45-1.36-.88-2.75-1.29-4.18-.39-1.43-.75-2.93-1.09-4.5-.03-.2-.07-.43-.15-.72-.06-.28-.12-.59-.21-.96.04.37.08.68.11.95.03.25.05.47.06.65l.23,3.3.23,4.01c.01.22.02.49.02.82.02.33.03.69.03,1.1l.23,14.15h-4.31v-32.46h.01Z"/>
          <polygon class="cls-5" points="1011.18 603.89 1022.81 603.89 1022.81 607.58 1015.55 607.58 1015.55 617.87 1021.99 617.87 1021.99 621.57 1015.55 621.57 1015.55 632.64 1022.81 632.64 1022.81 636.34 1011.18 636.34 1011.18 603.89"/>
          <path class="cls-5" d="M1035.46,603.89h4.25l2.25,6.29c.89,2.48,1.41,4.3,1.58,5.44.15-.71.33-1.41.51-2.08.2-.68.4-1.35.61-2.02l.29-.95,2.08-6.69h4.41l-6.01,15.97,6.01,16.49h-4.41l-2.14-6.18c-.43-1.24-.79-2.34-1.05-3.32-.27-.98-.46-1.85-.57-2.6-.12.94-.31,1.83-.57,2.69l-.74,2.32-.38,1.22-1.87,5.89h-4.62l6.13-16.49-5.76-15.97h0Z"/>
          <path class="cls-5" d="M1064.69,603.89h5.76c2.78,0,4.79.7,6.06,2.1,1.26,1.42,1.89,3.66,1.89,6.73,0,4.32-1.27,7.11-3.8,8.37-1.28.58-3.12.86-5.53.86v14.4h-4.37v-32.46h-.01ZM1069.06,618.2h0c1.81,0,3.05-.36,3.74-1.09.7-.74,1.05-2.06,1.05-3.95s-.34-3.35-1.01-4.25c-.67-.89-1.73-1.34-3.17-1.34h-.61v10.63h0Z"/>
          <path class="cls-5" d="M1092.61,603.89h5.76c2.38,0,4.15.57,5.32,1.71,1.47,1.47,2.21,3.72,2.21,6.74,0,2.33-.39,4.2-1.18,5.62-.77,1.4-1.88,2.27-3.32,2.6l5.97,15.79h-4.43l-5.95-15.89v15.89h-4.37v-32.46h0ZM1096.98,618.26h0c1.69,0,2.89-.39,3.6-1.18.7-.78,1.05-2.1,1.05-3.97,0-1.02-.08-1.87-.23-2.58-.14-.72-.37-1.3-.69-1.75-.31-.45-.72-.78-1.22-.99-.49-.22-1.08-.32-1.77-.32h-.73v10.78h-.01Z"/>
          <polygon class="cls-5" points="1121.6 603.89 1133.23 603.89 1133.23 607.58 1125.97 607.58 1125.97 617.87 1132.4 617.87 1132.4 621.57 1125.97 621.57 1125.97 632.64 1133.23 632.64 1133.23 636.34 1121.6 636.34 1121.6 603.89"/>
          <path class="cls-5" d="M1158.91,604.56v4.27c-1.33-.95-2.53-1.43-3.59-1.43-1.15,0-2.09.41-2.81,1.22-.73.77-1.1,1.8-1.1,3.09,0,1.13.27,2.1.78,2.92.27.44.7.99,1.31,1.68.61.68,1.41,1.51,2.37,2.48,1.78,1.81,2.99,3.37,3.63,4.69.64,1.28.97,2.83.97,4.69,0,2.5-.7,4.57-2.12,6.2-1.41,1.58-3.23,2.37-5.44,2.37-1.87,0-3.46-.51-4.77-1.54v-4.33c1.56,1.14,2.97,1.71,4.24,1.71,1.19,0,2.12-.39,2.79-1.18.68-.8,1.01-1.88,1.01-3.24,0-1.18-.26-2.24-.77-3.18-.27-.45-.64-.95-1.12-1.53-.48-.59-1.08-1.24-1.79-1.95-1.11-1.09-2.03-2.06-2.75-2.9-.73-.84-1.27-1.58-1.62-2.21-.68-1.23-1.01-2.79-1.01-4.67,0-2.53.66-4.55,1.98-6.03,1.33-1.49,3.11-2.25,5.36-2.25,1.56,0,3.04.37,4.45,1.11h0Z"/>
          <path class="cls-5" d="M1185.83,604.56v4.27c-1.33-.95-2.53-1.43-3.59-1.43-1.15,0-2.09.41-2.81,1.22-.73.77-1.1,1.8-1.1,3.09,0,1.13.26,2.1.78,2.92.26.44.7.99,1.31,1.68.61.68,1.41,1.51,2.37,2.48,1.79,1.81,3,3.37,3.64,4.69.64,1.28.97,2.83.97,4.69,0,2.5-.71,4.57-2.12,6.2-1.41,1.58-3.23,2.37-5.44,2.37-1.87,0-3.46-.51-4.77-1.54v-4.33c1.55,1.14,2.96,1.71,4.24,1.71,1.19,0,2.12-.39,2.79-1.18.68-.8,1.01-1.88,1.01-3.24,0-1.18-.26-2.24-.78-3.18-.26-.45-.64-.95-1.11-1.53-.48-.59-1.07-1.24-1.79-1.95-1.11-1.09-2.03-2.06-2.75-2.9-.73-.84-1.27-1.58-1.62-2.21-.68-1.23-1.01-2.79-1.01-4.67,0-2.53.66-4.55,1.97-6.03,1.33-1.49,3.12-2.25,5.36-2.25,1.56,0,3.04.37,4.46,1.11h-.01Z"/>
          <rect class="cls-6" x="580.32" y="618.57" width="165.76" height="3.06"/>
          <rect class="cls-6" x="1194.86" y="618.57" width="165.77" height="3.06"/>
          <polygon class="cls-4" points="583.31 557.71 605.37 505.31 580.87 505.31 588.16 488.14 663.47 488.14 656.19 505.31 631.6 505.31 609.55 557.71 583.31 557.71"/>
          <path class="cls-4" d="M714.33,517.6c1.35-4.07,1.22-7.17-.38-9.3-1.6-2.14-4.6-3.21-8.99-3.21-5.62,0-10.59,1.53-14.91,4.59-4.3,3.06-7.7,7.46-10.21,13.22-2.5,5.74-2.93,10.11-1.29,13.14,1.66,3.03,5.31,4.55,10.92,4.55,4.06,0,7.71-.89,10.96-2.68,3.3-1.81,6.1-4.48,8.44-8.01h30.26c-5.35,9.12-12.86,16.01-22.52,20.67-9.63,4.66-21.15,6.99-34.54,6.99-15.05,0-25.13-2.9-30.25-8.73-5.11-5.85-5.17-14.49-.18-25.93,5-11.46,12.6-20.1,22.8-25.92,10.21-5.85,22.84-8.78,37.88-8.78,14.03,0,23.79,2.54,29.27,7.61,5.49,5.05,6.4,12.32,2.72,21.78h-29.98Z"/>
          <polygon class="cls-4" points="736.2 557.71 765.84 488.14 792.08 488.14 762.44 557.71 736.2 557.71"/>
          <path class="cls-4" d="M1100.18,488.14c6.01,0,10.71.3,14.07.89,3.38.56,5.82,1.45,7.33,2.67,1.94,1.54,3.03,3.6,3.27,6.2.28,2.56-.28,5.53-1.71,8.92-1.73,4.1-4.28,7.71-7.63,10.84-3.34,3.1-7.07,5.33-11.21,6.71,2.51,1.29,3.97,2.88,4.39,4.78.45,1.88-.23,5.21-2.03,10-.2.53-.47,1.27-.84,2.2-3.4,9.08-4.32,14.12-2.75,15.12l-.45,1.08h-29.78c-.28-1.48.42-4.32,2.12-8.55.98-2.47,1.68-4.38,2.09-5.73.79-2.54.69-4.32-.31-5.35-.96-1.03-3.11-1.54-6.45-1.54h-15.99l-8.95,21.17h-27.16l30.57-69.42h51.42ZM1062.5,518.13h15.61c4.09,0,7.16-.48,9.22-1.46,2.1-.97,3.63-2.59,4.59-4.88.95-2.25.82-3.82-.4-4.69-1.17-.91-4.11-1.37-8.82-1.37h-14.96l-5.24,12.39h0Z"/>
          <path class="cls-4" d="M1180.91,535.57l31.02-.04c-.52,1.77,0,3.15,1.59,4.13,1.59.95,4.11,1.42,7.57,1.42s6.19-.38,8.22-1.15c2.07-.8,3.44-1.98,4.11-3.55.6-1.39.33-2.5-.81-3.34-1.12-.85-3.15-1.48-6.08-1.86l-18.12-2.35c-7.52-.95-12.59-3.07-15.21-6.35-2.59-3.28-2.7-7.68-.35-13.19,3.14-7.34,8.44-12.7,15.94-16.07,7.52-3.38,17.9-5.06,31.15-5.06s23.27,1.69,28.53,5.06,6.64,8.63,4.12,15.77h-29.75c.56-2.08-.03-3.63-1.77-4.67-1.72-1.06-4.54-1.6-8.47-1.6-2.86,0-5.28.4-7.26,1.2-1.97.77-3.23,1.82-3.8,3.15-.53,1.25-.31,2.19.66,2.84,1,.66,3.38,1.26,7.13,1.82l21.91,3.29c6.86,1.04,11.4,3.15,13.64,6.35,2.25,3.17,2.23,7.45-.07,12.84-3.44,8.05-9.56,13.96-18.38,17.72-8.81,3.76-20.98,5.64-36.49,5.64-12.33,0-20.99-1.89-25.98-5.68-4.97-3.79-5.98-9.22-3.05-16.3v-.02Z"/>
          <polygon class="cls-4" points="786.45 557.71 816.98 488.02 875.85 488.02 868.92 504.32 830.5 504.32 826.56 513.25 864.04 513.25 857.02 530.75 818.91 530.75 815.01 539.59 853.06 539.59 845.74 557.71 786.45 557.71"/>
          <path class="cls-4" d="M972.71,488.14h33.01c12.93,0,21.14,1.66,24.63,4.99,3.61,3.23,4.92,11,1.43,19.23-3.45,8.13-7.82,16-13.63,20.27-8.35,6.12-19.38,7.33-32.31,7.33l-35.67.02-7.36,17.57-9.93-25.32,5.55-11.63,54.24-.18c4.17,0,6.99-.72,9.68-2.69,1.87-1.38,2.17-1.38,3.28-3.99,1.13-2.65,1.11-4.5-.06-5.54-1.12-1.07-3.77-1.61-7.94-1.61h-46.17l21.23-18.46h.02Z"/>
          <polygon class="cls-4" points="1107.16 557.55 1137.6 488.14 1196.46 488.14 1189.54 504.44 1151.12 504.44 1147.17 513.37 1184.65 513.37 1177.63 530.87 1139.52 530.87 1135.63 539.7 1173.67 539.7 1166.45 557.55 1107.16 557.55"/>
          <path class="cls-4" d="M1267.68,535.57l31.03-.04c-.52,1.77,0,3.15,1.58,4.13,1.6.95,4.12,1.42,7.57,1.42s6.19-.38,8.22-1.15c2.07-.8,3.44-1.98,4.11-3.55.6-1.39.32-2.5-.81-3.34-1.12-.85-3.15-1.48-6.09-1.86l-18.11-2.35c-7.52-.95-12.59-3.07-15.21-6.35-2.58-3.28-2.71-7.68-.35-13.19,3.13-7.34,8.44-12.7,15.94-16.07,7.52-3.38,17.9-5.06,31.15-5.06s23.27,1.69,28.53,5.06,6.63,8.63,4.12,15.77h-29.75c.56-2.08-.03-3.63-1.76-4.67-1.72-1.06-4.54-1.6-8.48-1.6-2.86,0-5.28.4-7.25,1.2-1.97.77-3.23,1.82-3.8,3.15-.53,1.25-.31,2.19.66,2.84,1,.66,3.38,1.26,7.13,1.82l21.91,3.29c6.86,1.04,11.4,3.15,13.64,6.35,2.25,3.17,2.23,7.45-.07,12.84-3.44,8.05-9.57,13.96-18.38,17.72-8.81,3.76-20.98,5.64-36.5,5.64-12.33,0-20.99-1.89-25.99-5.68-4.97-3.79-5.98-9.22-3.05-16.3v-.02Z"/>
          <polygon class="cls-3" points="905.08 538.87 913.12 557.71 935.05 557.71 921.05 524.88 963.2 488.04 932.03 488.04 912.61 504.62 905.41 488.14 883.48 488.14 896.54 518.55 850.88 557.71 883.31 557.6 905.08 538.87"/>
        </g>
        <g>
          <g>
            <polygon class="cls-1" points="1562.08 517.11 1504.84 610.8 1480.21 567.01 1516.9 509.55 1498.16 505.79 1458.58 527.83 1437.51 490.61 1588.1 406.45 1608.83 443.86 1550.85 476.55 1629.99 481.44 1655.51 527.42 1562.08 517.11"/>
            <path class="cls-1" d="M1431.46,352.62c-14.56,13.76-40.15,36.19-21.74,54.91,4.97,5.05,10.72,9.8,18.37,9.61,7.1-.55,12.68-4.54,18.57-9.95l29.39,30.73c-30.95,28.7-68.06,22.47-94.73-7.04-26.1-28.89-19.67-65.37,4.41-93.43,8.48-9.88,17.66-18.62,27.83-26.78,26.26-21.06,61.89-29.13,90.12-7.04,8.72,6.82,15.55,15.07,20.95,24.76,14.67,26.31,7.34,55.89-13.51,77.04l-29.29-31.23c5.6-5.5,10.68-11.07,11.82-18.54,1.07-6.96-3.05-12.85-7.11-17.9-16.71-20.85-41.22,1.77-55.08,14.87h0Z"/>
          </g>
          <g>
            <path class="cls-1" d="M1221.75,212.06c17.17,17.42,11.11,42.88-1.77,59.75-6.76,8.85-16.26,14.2-27.28,15.91-11.49,1.24-22.5.1-33.63-3.67l-65.59-22.23,55.4-163.24,61.58,21.09c11.42,3.91,21.28,9.95,29.74,18.13,9.57,9.86,14.08,22.63,11.91,36.25-2.66,16.74-11.52,33.05-30.37,38h.01ZM1208.05,174.37c2.68-8.43.43-15.74-7.69-19.58-7.13-3.37-14.88-5.86-22.62-7.99l-10.66,31.53c7.15,2.71,14.33,5.07,21.46,7.13,9.34,2.7,16.6-1.95,19.51-11.1h0ZM1190.31,236.77c2.56-9.36-.42-17.27-9.62-20.39-7.67-2.6-15.31-5.53-23.82-7.91l-11.21,32.84c8.03,2.97,15.97,5.69,23.89,8.14,10.18,3.15,18.02-2.68,20.76-12.68h0Z"/>
            <path class="cls-7" d="M1190.31,236.77c-2.74,10-10.58,15.83-20.76,12.68-7.91-2.45-15.86-5.17-23.89-8.14l11.21-32.84c8.51,2.38,16.15,5.31,23.82,7.91,9.2,3.12,12.18,11.03,9.62,20.39h0Z"/>
            <path class="cls-7" d="M1208.05,174.37c-2.9,9.15-10.17,13.8-19.51,11.1-7.13-2.06-14.32-4.42-21.46-7.13l10.66-31.53c7.74,2.13,15.49,4.62,22.62,7.99,8.12,3.84,10.37,11.15,7.69,19.58h0Z"/>
          </g>
          <g>
            <path class="cls-1" d="M1314.61,329.09l-40.24-25.91-24.53,21.23-38.34-24.75,142.75-113.05,32.91,21-43.02,177.16-38.6-24.49,9.07-31.19h0ZM1325.55,292.27l13.06-45.13-35.79,31.05c7.95,4.93,14.75,10.23,22.74,14.08h-.01Z"/>
            <path class="cls-7" d="M1325.55,292.27c-7.98-3.86-14.78-9.16-22.74-14.08l35.79-31.05-13.06,45.13h.01Z"/>
          </g>
        </g>
      </g>
    </g>
  </g>
</svg>