<?xml version="1.0" encoding="UTF-8"?>
<svg id="Layer_2" data-name="Layer 2" xmlns="http://www.w3.org/2000/svg" viewBox="0 0 1836.38 350">
  <defs>
    <style>
      .cls-1 {
        fill: #d60524;
      }

      .cls-1, .cls-2, .cls-3 {
        fill-rule: evenodd;
      }

      .cls-2 {
        fill: #004d9a;
      }

      .cls-3, .cls-4 {
        fill: #1a1a18;
      }
    </style>
  </defs>
  <g id="Layer_1-2" data-name="Layer 1">
    <g>
      <polygon class="cls-3" points="408.91 272.68 419.2 272.68 419.2 340.35 436.01 340.35 436.01 349.06 408.91 349.06 408.91 272.68"/>
      <polygon class="cls-3" points="467.99 272.68 495.34 272.68 495.34 281.38 478.28 281.38 478.28 305.59 493.41 305.59 493.41 314.28 478.28 314.28 478.28 340.35 495.34 340.35 495.34 349.06 467.99 349.06 467.99 272.68"/>
      <path class="cls-3" d="M541.22,272.68h8.01l16.37,76.38h-10.19l-2.87-14.89h-15.13l-2.93,14.89h-9.89l16.63-76.38h0ZM551.06,326.21h0l-2.28-12.17c-1.51-8.28-2.75-17.12-3.71-26.51-.46,4.59-1.06,9.24-1.78,13.95-.72,4.68-1.58,9.65-2.57,14.94l-1.88,9.8h12.21Z"/>
      <path class="cls-3" d="M597.18,272.68h12.66c3.86,0,7.1.43,9.74,1.29,2.44.81,4.62,2.28,6.53,4.4,2.86,3.17,4.9,7.29,6.13,12.37,1.23,4.91,1.83,11.95,1.83,21.12,0,8.41-.68,15.27-2.03,20.58-1.31,5.08-3.49,8.95-6.53,11.62-3.73,3.33-10.4,5-20.03,5h-8.3v-76.38h0ZM607.47,340.05h0c6.26,0,10.45-1.88,12.56-5.68,2.16-3.79,3.27-11.16,3.27-22.11,0-11.77-1.04-19.87-3.12-24.29-2.07-4.43-5.88-6.63-11.42-6.63h-1.29v58.7Z"/>
      <polygon class="cls-3" points="669.85 272.68 697.21 272.68 697.21 281.38 680.16 281.38 680.16 305.59 695.29 305.59 695.29 314.28 680.16 314.28 680.16 340.35 697.21 340.35 697.21 349.06 669.85 349.06 669.85 272.68"/>
      <path class="cls-3" d="M732.2,272.68h13.55c5.6,0,9.78,1.34,12.51,4.01,3.47,3.46,5.19,8.75,5.19,15.87,0,5.48-.92,9.89-2.77,13.22-1.82,3.3-4.41,5.35-7.8,6.13l14.05,37.16h-10.45l-14-37.39v37.39h-10.29v-76.38h0ZM742.49,306.51h0c4,0,6.82-.92,8.46-2.77,1.65-1.83,2.48-4.95,2.48-9.33,0-2.39-.19-4.41-.54-6.08-.33-1.69-.88-3.06-1.64-4.11-.73-1.05-1.69-1.83-2.86-2.32-1.16-.51-2.55-.75-4.16-.75h-1.74v25.37Z"/>
      <rect class="cls-4" x="846.95" y="272.68" width="10.28" height="76.38"/>
      <path class="cls-3" d="M894.55,272.68h9.6l10.23,30.47c2.98,8.61,5.61,17.79,7.87,27.57-.81-5.91-1.43-11.24-1.82-16.04-.4-4.78-.61-9.29-.61-13.51v-28.49h10.36v76.38h-9.65l-11.53-34.38c-1.05-3.2-2.07-6.48-3.03-9.84-.92-3.36-1.77-6.9-2.56-10.59-.06-.46-.18-1.02-.35-1.69-.13-.66-.29-1.4-.49-2.26.1.86.19,1.59.25,2.23.06.59.11,1.1.14,1.53l.54,7.78.54,9.44c.03.52.05,1.16.05,1.92.04.77.06,1.63.06,2.58l.55,33.29h-10.15v-76.38Z"/>
      <polygon class="cls-3" points="1013.99 272.68 1041.35 272.68 1041.35 281.38 1024.28 281.38 1024.28 305.59 1039.42 305.59 1039.42 314.28 1024.28 314.28 1024.28 340.35 1041.35 340.35 1041.35 349.06 1013.99 349.06 1013.99 272.68"/>
      <path class="cls-3" d="M1071.13,272.68h10l5.29,14.8c2.08,5.83,3.31,10.11,3.71,12.8.36-1.67.77-3.31,1.2-4.89.46-1.6.94-3.17,1.43-4.75l.68-2.23,4.9-15.74h10.38l-14.14,37.58,14.14,38.8h-10.38l-5.05-14.54c-1.02-2.91-1.85-5.5-2.47-7.82-.64-2.31-1.08-4.34-1.34-6.13-.27,2.21-.72,4.31-1.34,6.32l-1.73,5.45-.89,2.86-4.4,13.86h-10.88l14.43-38.8-13.55-37.58Z"/>
      <path class="cls-3" d="M1139.92,272.68h13.55c6.53,0,11.28,1.65,14.26,4.94,2.96,3.35,4.44,8.62,4.44,15.83,0,10.16-2.98,16.72-8.95,19.7-3.01,1.35-7.34,2.03-13.01,2.03v33.89h-10.29v-76.38h0ZM1150.2,306.37h0c4.25,0,7.18-.85,8.81-2.57,1.64-1.75,2.47-4.84,2.47-9.3s-.79-7.89-2.37-10c-1.58-2.1-4.08-3.16-7.47-3.16h-1.43v25.02Z"/>
      <path class="cls-3" d="M1205.62,272.68h13.55c5.61,0,9.78,1.34,12.52,4.01,3.45,3.46,5.19,8.75,5.19,15.87,0,5.48-.92,9.89-2.77,13.22-1.81,3.3-4.42,5.35-7.82,6.13l14.04,37.16h-10.43l-14-37.39v37.39h-10.29v-76.38h0ZM1215.91,306.51h0c3.99,0,6.81-.92,8.46-2.77,1.64-1.83,2.47-4.95,2.47-9.33,0-2.39-.18-4.41-.54-6.08-.34-1.69-.88-3.06-1.63-4.11-.73-1.05-1.69-1.83-2.88-2.32-1.15-.51-2.53-.75-4.16-.75h-1.72v25.37Z"/>
      <polygon class="cls-3" points="1273.85 272.68 1301.21 272.68 1301.21 281.38 1284.14 281.38 1284.14 305.59 1299.27 305.59 1299.27 314.28 1284.14 314.28 1284.14 340.35 1301.21 340.35 1301.21 349.06 1273.85 349.06 1273.85 272.68"/>
      <path class="cls-3" d="M1361.67,274.26v10.05c-3.12-2.25-5.96-3.36-8.46-3.37-2.71,0-4.92.97-6.62,2.88-1.72,1.82-2.59,4.24-2.59,7.28,0,2.66.63,4.95,1.84,6.87.64,1.03,1.65,2.34,3.08,3.96,1.45,1.61,3.31,3.56,5.59,5.83,4.19,4.25,7.04,7.93,8.55,11.04,1.51,3.01,2.28,6.67,2.28,11.03,0,5.9-1.65,10.77-5,14.59-3.33,3.73-7.6,5.59-12.81,5.59-4.4,0-8.14-1.19-11.23-3.61v-10.19c3.67,2.68,6.99,4.01,9.99,4.01,2.8,0,5-.92,6.58-2.77,1.6-1.88,2.37-4.43,2.37-7.61,0-2.77-.61-5.27-1.81-7.48-.64-1.05-1.52-2.25-2.63-3.6-1.13-1.38-2.53-2.92-4.2-4.6-2.61-2.57-4.77-4.86-6.48-6.83-1.72-1.97-3-3.71-3.81-5.19-1.59-2.9-2.37-6.56-2.37-10.99,0-5.96,1.54-10.7,4.65-14.19,3.12-3.52,7.32-5.29,12.61-5.29,3.67,0,7.15.88,10.48,2.61Z"/>
      <path class="cls-3" d="M1425,274.26v10.05c-3.14-2.25-5.95-3.36-8.46-3.37-2.71,0-4.92.97-6.62,2.88-1.72,1.82-2.58,4.24-2.58,7.28,0,2.66.6,4.95,1.83,6.87.62,1.03,1.64,2.34,3.07,3.96,1.45,1.61,3.31,3.56,5.58,5.83,4.2,4.25,7.05,7.93,8.56,11.04,1.51,3.01,2.28,6.67,2.28,11.03,0,5.9-1.67,10.77-5,14.59-3.33,3.73-7.59,5.59-12.8,5.59-4.4,0-8.14-1.19-11.23-3.61v-10.19c3.65,2.68,6.98,4.01,9.99,4.01,2.8,0,4.99-.92,6.58-2.77,1.59-1.88,2.37-4.43,2.37-7.61,0-2.77-.6-5.27-1.83-7.48-.62-1.05-1.5-2.25-2.61-3.6-1.13-1.38-2.53-2.92-4.2-4.6-2.61-2.57-4.78-4.86-6.48-6.83-1.72-1.97-2.99-3.71-3.81-5.19-1.59-2.9-2.39-6.56-2.39-10.99,0-5.96,1.56-10.7,4.65-14.19,3.14-3.52,7.35-5.29,12.61-5.29,3.66,0,7.17.88,10.49,2.61Z"/>
      <rect class="cls-4" y="307.22" width="390.1" height="7.2"/>
      <rect class="cls-4" x="1446.26" y="307.22" width="390.12" height="7.2"/>
      <polygon class="cls-2" points="7.04 164 58.94 40.68 1.29 40.68 18.44 .29 195.69 .29 178.54 40.68 120.67 40.68 68.78 164 7.04 164"/>
      <path class="cls-2" d="M315.38,69.61c3.17-9.57,2.87-16.87-.89-21.9-3.77-5.03-10.83-7.55-21.16-7.55-13.22,0-24.93,3.6-35.09,10.8-10.11,7.2-18.12,17.56-24.03,31.12-5.89,13.51-6.9,23.79-3.04,30.93,3.91,7.14,12.5,10.71,25.7,10.71,9.55,0,18.15-2.1,25.8-6.3,7.76-4.25,14.36-10.54,19.87-18.86h71.2c-12.59,21.45-30.26,37.67-53,48.64-22.66,10.97-49.77,16.45-81.28,16.45-35.42,0-59.15-6.83-71.19-20.54-12.02-13.76-12.17-34.1-.43-61.02,11.77-26.96,29.66-47.3,53.65-61C245.52,7.31,275.25.43,310.65.43c33.03,0,55.99,5.97,68.88,17.92,12.92,11.88,15.05,28.99,6.4,51.27h-70.55Z"/>
      <polygon class="cls-2" points="366.85 164 436.6 .29 498.35 .29 428.59 164 366.85 164"/>
      <path class="cls-2" d="M1223.43.29c14.16,0,25.19.7,33.11,2.09,7.95,1.32,13.7,3.42,17.25,6.29,4.57,3.61,7.14,8.47,7.71,14.59.67,6.04-.67,13.03-4.03,20.99-4.08,9.65-10.06,18.15-17.95,25.51-7.85,7.29-16.64,12.55-26.37,15.8,5.91,3.03,9.35,6.77,10.32,11.26,1.05,4.43-.54,12.26-4.78,23.53-.46,1.26-1.11,2.99-1.97,5.19-8.01,21.37-10.16,33.22-6.47,35.58l-1.07,2.55h-70.09c-.67-3.47.98-10.16,4.98-20.11,2.31-5.81,3.95-10.3,4.92-13.48,1.86-5.97,1.63-10.16-.73-12.6-2.26-2.42-7.33-3.63-15.18-3.63h-37.63l-21.05,49.81h-63.93L1102.43.29h121.01ZM1134.77,70.86h36.74c9.61,0,16.85-1.13,21.69-3.42,4.94-2.28,8.53-6.1,10.8-11.48,2.25-5.3,1.94-8.98-.94-11.03-2.76-2.14-9.68-3.22-20.76-3.22h-35.21l-12.32,29.16Z"/>
      <path class="cls-2" d="M1413.42,111.9l73-.1c-1.22,4.17.01,7.42,3.74,9.71,3.74,2.23,9.67,3.35,17.8,3.35s14.57-.89,19.35-2.71c4.87-1.88,8.09-4.66,9.67-8.36,1.41-3.28.77-5.89-1.91-7.85-2.64-2-7.41-3.47-14.32-4.38l-42.63-5.54c-17.69-2.23-29.62-7.22-35.78-14.96-6.09-7.72-6.35-18.07-.83-31.04,7.39-17.28,19.87-29.89,37.5-37.82,17.7-7.95,42.12-11.91,73.32-11.91s54.77,3.97,67.15,11.91c12.38,7.93,15.62,20.31,9.7,37.11h-70.01c1.31-4.89-.08-8.53-4.16-10.99-4.04-2.5-10.69-3.76-19.94-3.76-6.74,0-12.42.94-17.09,2.82-4.63,1.82-7.61,4.28-8.95,7.42-1.24,2.93-.73,5.16,1.56,6.69,2.36,1.54,7.95,2.96,16.79,4.29l51.57,7.74c16.13,2.44,26.83,7.42,32.11,14.94,5.31,7.47,5.24,17.54-.17,30.21-8.09,18.95-22.5,32.85-43.26,41.71-20.73,8.85-49.37,13.26-85.89,13.26-29.02,0-49.4-4.46-61.15-13.37-11.69-8.92-14.08-21.71-7.17-38.36Z"/>
      <polygon class="cls-2" points="485.1 164 556.96 0 695.49 0 679.2 38.36 588.77 38.36 579.49 59.38 667.7 59.38 651.18 100.56 561.49 100.56 552.32 121.36 641.86 121.36 624.64 164 485.1 164"/>
      <path class="cls-2" d="M923.44.27h77.7c30.44,0,49.75,3.92,57.97,11.75,8.51,7.61,11.58,25.9,3.36,45.25-8.12,19.14-18.39,37.65-32.07,47.7-19.65,14.41-45.61,17.26-76.05,17.26l-83.94.05-17.31,41.36-23.36-59.59,13.07-27.36,127.64-.43c9.81,0,16.45-1.69,22.79-6.32,4.41-3.24,5.11-3.24,7.72-9.4,2.66-6.24,2.61-10.59-.14-13.04-2.64-2.52-8.87-3.78-18.68-3.78h-108.66L923.44.27Z"/>
      <polygon class="cls-2" points="1239.87 163.64 1311.5 .27 1450.02 .27 1433.75 38.64 1343.32 38.64 1334.02 59.66 1422.23 59.66 1405.72 100.83 1316.02 100.83 1306.87 121.63 1396.38 121.63 1379.41 163.64 1239.87 163.64"/>
      <path class="cls-2" d="M1617.64,111.9l73.02-.1c-1.22,4.17.01,7.42,3.73,9.71,3.76,2.23,9.68,3.35,17.82,3.35s14.57-.89,19.35-2.71c4.87-1.88,8.09-4.66,9.67-8.36,1.4-3.28.76-5.89-1.91-7.85-2.64-2-7.42-3.47-14.32-4.38l-42.63-5.54c-17.7-2.23-29.62-7.22-35.79-14.96-6.08-7.72-6.37-18.07-.83-31.04,7.37-17.28,19.87-29.89,37.5-37.82,17.69-7.95,42.12-11.91,73.32-11.91s54.77,3.97,67.15,11.91c12.37,7.93,15.61,20.31,9.7,37.11h-70.02c1.32-4.89-.07-8.53-4.14-10.99-4.04-2.5-10.69-3.76-19.96-3.76-6.72,0-12.42.94-17.07,2.82-4.64,1.82-7.61,4.28-8.95,7.42-1.24,2.93-.73,5.16,1.56,6.69,2.35,1.54,7.95,2.96,16.79,4.29l51.57,7.74c16.13,2.44,26.84,7.42,32.11,14.94,5.29,7.47,5.24,17.54-.17,30.21-8.09,18.95-22.52,32.85-43.25,41.71-20.74,8.85-49.37,13.26-85.89,13.26-29.02,0-49.4-4.46-61.15-13.37-11.69-8.92-14.08-21.71-7.18-38.36Z"/>
      <polygon class="cls-1" points="764.29 119.67 783.21 164 834.83 164 801.86 86.75 901.06 .05 827.72 .05 782.02 39.05 765.06 .29 713.46 .29 744.19 71.84 636.73 164 713.06 163.73 764.29 119.67"/>
    </g>
  </g>
</svg>